<svg id="Group_2" data-name="Group 2" xmlns="http://www.w3.org/2000/svg" viewBox="390 340 1200 480">
  <defs>
    <style>
      .cls-1 {
        fill: none;
        stroke: #000;
        stroke-width: 2px;
      }

      .cls-2, .cls-3 {
        stroke: none;
      }
    </style>
  </defs>
  <g id="Group_1" data-name="Group 1" transform="translate(-127 -3)">
    <g id="Path_1" data-name="Path 1" transform="translate(517 363)">
      <path class="cls-2" d="M 599.5 440.9741821289062 C 594.60400390625 440.3840026855469 558.2244873046875 436.0705871582031 506.2909240722656 431.8093872070312 C 473.6263122558594 429.1292419433594 441.2902221679688 426.9937133789062 410.1808471679688 425.462158203125 C 371.2926940917969 423.5476379394531 334.2225341796875 422.5769348144531 300 422.5769348144531 C 265.7774658203125 422.5769348144531 228.7073059082031 423.5476379394531 189.8191528320312 425.462158203125 C 158.7097625732422 426.9937133789062 126.3736953735352 429.1292419433594 93.70907592773438 431.8093872070312 C 41.77549743652344 436.0705871582031 5.395982265472412 440.3840026855469 0.5 440.9741821289062 L 0.5 -1.095539808273315 C 4.875581741333008 -1.624132752418518 41.42229843139648 -5.974111557006836 93.79653930664062 -10.2713737487793 C 126.4496154785156 -12.95052814483643 158.7740020751953 -15.08522033691406 189.8718414306641 -16.61614418029785 C 228.7423858642578 -18.52975845336914 265.7948608398438 -19.4999885559082 300 -19.4999885559082 C 334.2051391601562 -19.4999885559082 371.2576293945312 -18.52975845336914 410.1281433105469 -16.61614418029785 C 441.2260131835938 -15.08522033691406 473.5503845214844 -12.95052814483643 506.2034606933594 -10.2713737487793 C 558.5776977539062 -5.974111557006836 595.1243896484375 -1.624132752418518 599.5 -1.095539808273315 L 599.5 232.2733917236328 L 599.5 440.9741821289062 Z"/>
      <path class="cls-3" d="M 599 440.4105224609375 L 599 232.2733917236328 L 599 -0.6520634293556213 C 593.0204467773438 -1.369474768638611 557.0673217773438 -5.596415996551514 506.1569213867188 -9.773528099060059 C 473.5099182128906 -12.45206642150879 441.1916809082031 -14.58637428283691 410.1000061035156 -16.11691284179688 C 371.239013671875 -18.02998924255371 334.1960144042969 -18.9999885559082 300 -18.9999885559082 C 265.8039855957031 -18.9999885559082 228.7610015869141 -18.02998924255371 189.8999938964844 -16.11691284179688 C 158.8083038330078 -14.58637428283691 126.4900741577148 -12.45206642150879 93.84307861328125 -9.773528099060059 C 42.93265151977539 -5.596415996551514 6.979565620422363 -1.369474768638611 1 -0.6520634293556213 L 1 440.4105224609375 C 7.663381576538086 439.6135559082031 43.37530136108398 435.4376831054688 93.66822814941406 431.3110961914062 C 126.3382339477539 428.6304626464844 158.6797637939453 426.4945373535156 189.7946166992188 424.9627685546875 C 228.6908416748047 423.0478515625 265.7693176269531 422.0769348144531 300 422.0769348144531 C 334.2306823730469 422.0769348144531 371.3091430664062 423.0478515625 410.2053833007812 424.9627685546875 C 441.3202209472656 426.4945373535156 473.6617736816406 428.6304626464844 506.3317565917969 431.3110961914062 C 556.6246948242188 435.4376831054688 592.3366088867188 439.6135559082031 599 440.4105224609375 M 600 441.5384826660156 C 600 441.5384826660156 450 423.0769348144531 300 423.0769348144531 C 150 423.0769348144531 0 441.5384826660156 0 441.5384826660156 L 0 -1.538450956344604 C 0 -1.538450956344604 150 -19.9999885559082 300 -19.9999885559082 C 450 -19.9999885559082 600 -1.538450956344604 600 -1.538450956344604 L 600 232.2733917236328 L 600 441.5384826660156 Z"/>
    </g>
    <g id="Path_2" data-name="Path 2" transform="translate(1717 823) rotate(180)">
      <path class="cls-2" d="M 599.5 460.9741821289062 C 594.60400390625 460.3840026855469 558.2244873046875 456.0705871582031 506.2909240722656 451.8093872070312 C 473.6263122558594 449.1292419433594 441.2902221679688 446.9937133789062 410.1808471679688 445.462158203125 C 371.2926940917969 443.5476379394531 334.2225341796875 442.5769348144531 300 442.5769348144531 C 265.7774658203125 442.5769348144531 228.7073059082031 443.5476379394531 189.8191528320312 445.462158203125 C 158.7097625732422 446.9937133789062 126.3736953735352 449.1292419433594 93.70907592773438 451.8093872070312 C 41.77549743652344 456.0705871582031 5.395982265472412 460.3840026855469 0.5 460.9741821289062 L 0.5 18.90446090698242 C 4.875581741333008 18.37586784362793 41.42229843139648 14.02588844299316 93.79653930664062 9.728626251220703 C 126.4496154785156 7.049472332000732 158.7740020751953 4.914779663085938 189.8718414306641 3.383856773376465 C 228.7423858642578 1.47024130821228 265.7948608398438 0.5000105500221252 300 0.5000105500221252 C 334.2051391601562 0.5000105500221252 371.2576293945312 1.47024130821228 410.1281433105469 3.383856773376465 C 441.2260131835938 4.914779663085938 473.5503845214844 7.049472332000732 506.2034606933594 9.728626251220703 C 558.5776977539062 14.02588844299316 595.1243896484375 18.37586784362793 599.5 18.90446090698242 L 599.5 252.2733917236328 L 599.5 460.9741821289062 Z"/>
      <path class="cls-3" d="M 599 460.4105224609375 L 599 252.2733917236328 L 599 19.34793663024902 C 593.0204467773438 18.63052558898926 557.0673217773438 14.40358448028564 506.1569213867188 10.22647190093994 C 473.5099182128906 7.547933578491211 441.1916809082031 5.413625717163086 410.1000061035156 3.883087396621704 C 371.239013671875 1.97001051902771 334.1960144042969 1.00001060962677 300 1.00001060962677 C 265.8039855957031 1.00001060962677 228.7610015869141 1.97001051902771 189.8999938964844 3.883087396621704 C 158.8083038330078 5.413625717163086 126.4900741577148 7.547933578491211 93.84307861328125 10.22647190093994 C 42.93265151977539 14.40358448028564 6.979565620422363 18.63052558898926 1 19.34793663024902 L 1 460.4105224609375 C 7.663381576538086 459.6135559082031 43.37530136108398 455.4376831054688 93.66822814941406 451.3110961914062 C 126.3382339477539 448.6304626464844 158.6797637939453 446.4945373535156 189.7946166992188 444.9627685546875 C 228.6908416748047 443.0478515625 265.7693176269531 442.0769348144531 300 442.0769348144531 C 334.2306823730469 442.0769348144531 371.3091430664062 443.0478515625 410.2053833007812 444.9627685546875 C 441.3202209472656 446.4945373535156 473.6617736816406 448.6304626464844 506.3317565917969 451.3110961914062 C 556.6246948242188 455.4376831054688 592.3366088867188 459.6135559082031 599 460.4105224609375 M 600 461.5384826660156 C 600 461.5384826660156 450 443.0769348144531 300 443.0769348144531 C 150 443.0769348144531 0 461.5384826660156 0 461.5384826660156 L 0 18.46154975891113 C 0 18.46154975891113 150 1.056377732311375e-05 300 1.056377732311375e-05 C 450 1.056377732311375e-05 600 18.46154975891113 600 18.46154975891113 L 600 252.2733917236328 L 600 461.5384826660156 Z"/>
    </g>
  </g>
  <line id="Line_1" data-name="Line 1" class="cls-1" y1="442" transform="translate(990.5 359.5)"/>
</svg>
